<svg width="2048" height="2048" viewBox="0 0 2048 2048" fill="none" xmlns="http://www.w3.org/2000/svg">
<path d="M1022.93 410.016L1025.05 408.098C1025.93 458.757 1029.66 509.79 1031.37 560.454C1031.64 568.171 1031.96 576.275 1032.54 583.964C1105.94 581.213 1154.75 574.463 1221.24 542.124C1225.79 558.635 1228.42 574.622 1231.18 591.503C1194.74 599.635 1151.5 614.448 1131.43 648.28C1103.85 694.768 1104.08 793.525 1103.63 847.063C1139.3 793.149 1171.37 735.999 1205.1 680.835C1210.5 672.003 1215.87 662.923 1221 653.937L1222.28 655.353C1218.92 661.668 1214.32 673.225 1211.23 680.256C1203.85 696.943 1196.57 713.672 1189.38 730.445C1167.2 782.827 1145.42 835.373 1124.02 888.079C1166 852.691 1208.63 814.264 1249.69 777.642C1310.1 724.028 1369.93 669.774 1429.19 614.89L1430.17 617.28C1335.59 716.461 1244.77 819.166 1157.9 925.178C1212.94 899.948 1267.22 871.703 1321.69 845.188C1346.7 833.011 1373.49 818.012 1398.41 806.643L1399.16 808.318C1355.94 834.802 1302.17 873.996 1259.74 903.964L1204.17 943.475C1195.84 949.445 1183.27 957.898 1175.62 964.33C1263.36 947.884 1350.53 928.548 1436.99 906.355L1437.67 908.879C1356.44 938.705 1275.69 969.84 1195.46 1002.27L1198.48 1005.57L1481.95 1016.37L1579.33 1020.41C1593.31 1020.94 1615.05 1022.39 1628.62 1021.94C1630.6 1022.59 1632.58 1023.26 1634.55 1023.94C1616.3 1024.38 1597.68 1025.24 1579.45 1026.27C1451.73 1033.46 1323.46 1037.84 1195.84 1046.09L1196.22 1049.24C1279.78 1080.81 1360.36 1112.6 1444.49 1143.51L1443.78 1145.57C1356.07 1119.3 1263.89 1105.07 1174.53 1086.25C1181.04 1092.03 1192.22 1099.35 1199.67 1104.55L1238.15 1131.61C1288.96 1167.82 1340.46 1203.06 1392.62 1237.29L1389.55 1238.35C1337.61 1212.35 1285.52 1186.67 1233.27 1161.29C1209.76 1149.94 1181.43 1135.43 1157.71 1125.61C1240.87 1231.03 1337.69 1331.07 1427.75 1430.52L1425.64 1431.51C1325.54 1340.85 1224.84 1250.85 1123.56 1161.51C1131.44 1182.31 1140.96 1203.73 1149.55 1224.35C1163.73 1258.74 1178.09 1293.05 1192.63 1327.29C1201.11 1347.13 1217.65 1382.75 1223.94 1401.84C1194.46 1353.98 1166.65 1304.17 1137.04 1256.37C1130.23 1245.4 1109.9 1209.5 1102.83 1200.76C1102.96 1236.86 1104.59 1265.52 1108.59 1301.54C1113.05 1341.72 1110.37 1380.38 1142.85 1411.34C1165.08 1433.31 1199.58 1444.4 1229.5 1452.32C1228.22 1468.11 1225.93 1485.37 1221.4 1500.61C1167.95 1473.38 1092.97 1457.15 1033.11 1456.8L1027.65 1575.82C1026.83 1594.15 1024.99 1617.96 1025.06 1635.8L1022.9 1637.67C1023.03 1620.17 1021.25 1596.3 1020.54 1578.35L1015.74 1456.61C947.847 1458.43 889.669 1473.22 827.799 1500.61C824.38 1483.04 822.816 1470.65 821.604 1452.78C904.009 1436.23 928.885 1406.35 938.752 1325.42C943.891 1283.27 947.799 1250.43 947.785 1207.25C946.593 1204.64 946.784 1204.69 944.582 1203.09C936.517 1213.94 927.633 1229.47 920.355 1241.41L883.789 1301.11C870.911 1322.09 858.152 1343.15 845.513 1364.27C841.761 1370.51 829.471 1390.1 826.995 1396H824.927C858.734 1318.71 892.051 1241.2 924.877 1163.48C857.076 1222.16 789.808 1281.46 723.082 1341.35C689.514 1371.32 653.744 1402.49 621.085 1433.12C617.777 1436.2 612.145 1441.17 609.248 1444.32L607.597 1443.59C610.943 1440.54 616.107 1434.88 619.402 1431.47C710.821 1335.44 799.014 1236.39 883.837 1134.49L885.154 1128.42C820.189 1157.21 756.212 1190.93 691.875 1221.23C680.583 1226.55 669.405 1232.56 658.041 1237.68L657.197 1234.87C707.966 1202.03 758.136 1168.28 807.682 1133.62C828.997 1118.73 852.649 1102.62 873.195 1086.87C794.338 1098.78 700.725 1121.03 622.846 1138.79C620.597 1137.86 620.622 1137.85 618.693 1136.38C637.838 1128.66 659.939 1121.05 679.476 1113.85L793.074 1071.62C813.047 1064.1 841.031 1054.28 860.066 1045.45C800.382 1044.11 732.485 1039.32 672.644 1036.12L414.432 1023.94C417.309 1023.27 420.173 1022.68 423.049 1022.03C435.578 1022.34 454.105 1021.04 466.947 1020.5L550.763 1017.03C654.55 1012.26 758.366 1008.16 862.206 1004.73C792.334 976.725 721.721 950.224 651.497 923.106C634.92 916.705 618.568 910.042 601.774 904.181L603.005 902.503C688.825 924.773 787.287 950.478 874.763 963.495C800.71 910.428 725.734 858.66 649.87 808.216L650.588 806.528L787.931 874.45C819.225 890.043 858.838 910.21 890.744 923.754C802.332 817.095 710.23 713.549 614.606 613.304L615.542 610.995L829.76 803.059C859.482 829.565 894.545 862.535 924.961 887.486C895.079 814.928 864.617 742.546 833.832 670.368C831.781 665.559 829.17 658.797 826.76 654.307L827.829 652.299C844.324 682.456 864.713 715.201 882.593 744.66L946.615 850.655C946.3 796.122 945.732 697.047 917.735 648.823C897.894 614.649 857.102 601.24 820.903 592.656C822.443 574.879 824.152 559.993 827.605 542.461C895.326 570.792 943.273 580.972 1016.73 583.691L1020.99 470.782C1021.72 451.56 1023.09 429.013 1022.93 410.016Z" fill="#DBCDB7"/>
<path d="M885.154 1128.42C885.964 1128.05 888.419 1126.56 889.376 1126.89C889.996 1127.92 884.73 1133.42 883.837 1134.49L885.154 1128.42Z" fill="#122B25"/>
<path d="M944.582 1203.09C945.081 1201.94 945.736 1200.29 946.876 1199.64C947.244 1199.63 947.078 1199.59 947.378 1199.75C947.933 1200.64 947.785 1202 947.771 1203.01C947.758 1204.42 947.763 1205.84 947.785 1207.25C946.593 1204.64 946.784 1204.69 944.582 1203.09Z" fill="#062624"/>
<path d="M1198.48 1005.57C1197.44 1005.49 1191.26 1005.43 1190.82 1004.47C1191.58 1003.47 1192.9 1003.14 1194.05 1002.78L1195.46 1002.27L1198.48 1005.57Z" fill="#122B25"/>
<path d="M1196.22 1049.24C1195.73 1049.01 1191.23 1047.51 1191.59 1046.51C1192.41 1045.82 1194.79 1046.08 1195.84 1046.09L1196.22 1049.24Z" fill="#062624"/>
<path d="M622.846 1138.79C617.465 1140.75 601.435 1144.62 595.443 1145.67L594.679 1145.3L594.661 1145.32C594.82 1144.32 616.427 1136.78 618.693 1136.38C620.622 1137.85 620.597 1137.86 622.846 1138.79Z" fill="#99998C"/>
<path d="M1438.53 1440.95C1440.16 1441.9 1451.82 1452.6 1450.94 1454.9C1449.63 1455.36 1438.13 1443.73 1436.87 1442.2L1438.53 1440.95Z" fill="#3E4F48"/>
<path d="M614.606 613.304C612.573 611.33 598.321 597.215 598.62 596.376L598.901 596.337C600.967 597.114 613.648 608.916 615.542 610.995L614.606 613.304Z" fill="#99998C"/>
<path d="M1442.9 601.604L1443.12 604.338C1439.5 607.112 1433.95 613.687 1430.17 617.28L1429.19 614.89C1433.67 610.553 1438.7 606.123 1442.9 601.604Z" fill="#99998C"/>
<path d="M1427.75 1430.52C1430.33 1432.46 1435.81 1438.36 1438.53 1440.95L1436.87 1442.2C1432.84 1439.38 1429.19 1435.11 1425.64 1431.51L1427.75 1430.52Z" fill="#99998C"/>
<path d="M657.197 1234.87L658.041 1237.68C655.688 1239.55 644.857 1244.35 641.665 1245.8C646.462 1241.51 651.734 1238.29 657.197 1234.87Z" fill="#99998C"/>
<path d="M1436.99 906.355C1438.81 905.631 1453.38 901.95 1454.41 902.513C1453.95 903.212 1439.59 908.331 1437.67 908.879L1436.99 906.355Z" fill="#727970"/>
<path d="M609.248 1444.32C609.321 1444.23 607.397 1446.84 606.934 1446.89C607.197 1446.86 595.478 1459.17 596.729 1455.11C597.293 1453.28 606.362 1444.35 607.597 1443.59L609.248 1444.32Z" fill="#3E4F48"/>
<path d="M1025.06 1635.8C1025.1 1637.82 1025.4 1653.24 1023.71 1654.01C1022.93 1653.25 1022.88 1644.89 1022.86 1643.5C1022.83 1641.56 1022.84 1639.61 1022.9 1637.67L1025.06 1635.8Z" fill="#727970"/>
<path d="M414.432 1023.94C412.41 1024.19 405.075 1024.18 403.58 1023.38L403.561 1023.3C405.778 1021.63 420.126 1021.91 423.049 1022.03C420.173 1022.68 417.309 1023.27 414.432 1023.94Z" fill="#727970"/>
<path d="M1392.62 1237.29C1394.32 1238.15 1402.28 1243.19 1403.11 1244.22L1403.13 1244.42C1402.13 1245.39 1390.99 1239.16 1389.55 1238.35L1392.62 1237.29Z" fill="#99998C"/>
<path d="M1024.02 392.025C1025.09 397.431 1025.29 402.598 1025.05 408.098L1022.93 410.016C1022.82 403.64 1023.5 398.336 1024.02 392.025Z" fill="#727970"/>
<path d="M1628.62 1021.94C1631.32 1021.89 1643.3 1021.95 1645.38 1022.6L1645.54 1022.82C1645.14 1024.41 1636.16 1024.08 1634.55 1023.94C1632.58 1023.26 1630.6 1022.59 1628.62 1021.94Z" fill="#727970"/>
<path d="M820.976 641.093C823.433 644.693 826.319 648.162 827.829 652.299L826.76 654.307L826.58 653.983C824.116 649.632 822.798 645.73 820.976 641.093Z" fill="#727970"/>
<path d="M601.774 904.181C600.544 903.771 594.127 902.174 593.923 900.665C595.28 899.795 601.493 901.832 603.005 902.503L601.774 904.181Z" fill="#727970"/>
<path d="M1444.49 1143.51C1446.19 1143.91 1450.26 1145.07 1451.33 1146.33L1451.45 1146.34C1451.48 1146.45 1451.52 1146.56 1451.55 1146.68C1450.75 1147.71 1444.92 1145.83 1443.78 1145.57L1444.49 1143.51Z" fill="#99998C"/>
<path d="M649.87 808.216C648.795 807.638 643.495 804.783 643.479 803.579C644.769 802.617 649.49 805.747 650.588 806.528L649.87 808.216Z" fill="#99998C"/>
<path d="M1221 653.937C1224.68 645.467 1226.45 647.294 1222.28 655.353L1221 653.937Z" fill="#99998C"/>
<path d="M1446.87 599.061L1447.14 598.388C1447.54 597.321 1447.97 597.301 1449.07 596.89C1449.68 599.113 1449.07 599.671 1446.87 599.061Z" fill="#122B25"/>
<path d="M824.927 1396H826.995C826.595 1396.82 824.554 1401.46 823.275 1401.32C822.454 1400.27 824.553 1396.79 824.927 1396Z" fill="#727970"/>
<path d="M1398.41 806.643C1402.99 803.494 1404.81 805.029 1399.16 808.318L1398.41 806.643Z" fill="#727970"/>
<path d="M1442.9 601.604C1444.53 600.347 1445.03 600.081 1446.87 599.061C1445.36 601.793 1445.32 602.141 1443.12 604.338L1442.9 601.604Z" fill="#3E4F48"/>
</svg>
